<?xml version="1.0" encoding="utf-8"?>
<!-- Generator: Adobe Illustrator 23.0.3, SVG Export Plug-In . SVG Version: 6.00 Build 0)  -->
<svg version="1.1" id="Layer_1" xmlns="http://www.w3.org/2000/svg" xmlns:xlink="http://www.w3.org/1999/xlink" x="0px" y="0px"
	 viewBox="0 0 512 512" style="enable-background:new 0 0 512 512;" xml:space="preserve">
<style type="text/css">
	.st0{fill:#FFFFFF;}
</style>
<g>
	<g>
		<path class="st0" d="M83.6,167.3H16.7C7.5,167.3,0,174.7,0,184v300.9c0,9.2,7.5,16.7,16.7,16.7h66.9c9.2,0,16.7-7.5,16.7-16.7V184
			C100.3,174.7,92.8,167.3,83.6,167.3z"/>
	</g>
</g>
<g>
	<g>
		<path class="st0" d="M470.3,167.3c-2.7-0.5-128.7,0-128.7,0l17.6-48c12.1-33.2,4.3-83.8-29.4-101.8c-11-5.9-26.3-8.8-38.7-5.7
			c-7.1,1.8-13.3,6.5-17,12.8c-4.3,7.2-3.8,15.7-5.4,23.7c-3.9,20.3-13.5,39.7-28.4,54.2c-26,25.3-106.6,98.3-106.6,98.3v267.5
			h278.6c37.6,0,62.2-42,43.7-74.7c22.1-14.2,29.7-44,16.7-66.9c22.1-14.2,29.7-44,16.7-66.9C527.6,235.2,514.8,174.8,470.3,167.3z"
			/>
	</g>
</g>
</svg>
